# xmcd CD database file generated by OrangeCD 6.2
#
# Track frame offsets:
#	150
#	20972
#	37075
#	50980
#	71412
#	88827
#	110715
#	130450
#	147670
#	170225
#	191995
#	204560
#
# Disc length: 3014 seconds
#
# Revision: 3
# Processed by: cddbd v1.5.2PL0 Copyright (c) Steve Scherf et al.
# Submitted via: OrangeCD 6.2
#
DISCID=d10bc40c
DTITLE=Various Artist - Pickin' on U2: A Bluegrass Tribute
DYEAR=2001
DGENRE=Bluegrass
TTITLE0=Where the Streets Have No Name
TTITLE1=Trip Through Your Wires
TTITLE2=In God's Country
TTITLE3=One
TTITLE4=Pride (In the Name of Love)
TTITLE5=With or Without You
TTITLE6=One Tree Hill
TTITLE7=Mysterious Ways
TTITLE8=All I Want Is You
TTITLE9=Mothers Of The Disappeared
TTITLE10=Desire
TTITLE11=I Still Haven't Found What I'm Looking For
EXTD=
EXTT0=
EXTT1=
EXTT2=
EXTT3=
EXTT4=
EXTT5=
EXTT6=
EXTT7=
EXTT8=
EXTT9=
EXTT10=
EXTT11=
PLAYORDER=
